<?xml version="1.0" encoding="UTF-8"?>
<svg version="1.1" xmlns="http://www.w3.org/2000/svg" width="1024" height="1024">
<path d="M0 0 C337.92 0 675.84 0 1024 0 C1024 337.92 1024 675.84 1024 1024 C686.08 1024 348.16 1024 0 1024 C0 686.08 0 348.16 0 0 Z " fill="#FEFEFE" transform="translate(0,0)"/>
<path d="M0 0 C337.92 0 675.84 0 1024 0 C1024 337.92 1024 675.84 1024 1024 C686.08 1024 348.16 1024 0 1024 C0 686.08 0 348.16 0 0 Z M249.82421875 89.6484375 C244.67064629 96.29180072 240.86264925 104.10313352 240.88647461 112.58496094 C240.88655014 113.48559265 240.88662567 114.38622437 240.88670349 115.31414795 C240.89186478 116.27782288 240.89702606 117.2414978 240.90234375 118.234375 C240.9037587 119.22753723 240.90517365 120.22069946 240.90663147 121.24395752 C240.91222412 124.41266912 240.9247753 127.58130979 240.9375 130.75 C240.94251595 132.89973856 240.94707869 135.04947823 240.95117188 137.19921875 C240.96219114 142.46616999 240.978922 147.73307993 241 153 C240.24039474 152.98889694 239.48078949 152.97779388 238.69816589 152.96635437 C231.44908189 152.86509554 224.20035293 152.7895095 216.95073986 152.74093914 C213.22587988 152.71512689 209.50161639 152.68026866 205.77709961 152.62280273 C174.90143799 152.15936889 148.9712584 156.73749219 125.54296875 178.53125 C116.85273309 186.96785359 110.49318857 195.29627015 105 206 C104.51660156 206.92683594 104.03320312 207.85367188 103.53515625 208.80859375 C99.90047062 216.24368015 97.8911559 223.97185781 96 232 C95.82121754 232.69149785 95.64243508 233.38299569 95.45823497 234.09544802 C94.78700205 238.3501013 94.8619229 242.55482834 94.87136555 246.85564423 C94.86961251 247.86041266 94.86785947 248.8651811 94.86605331 249.90039706 C94.86137818 253.28838866 94.86386272 256.67633763 94.86628723 260.06433105 C94.86442001 262.5095131 94.86211967 264.95469485 94.85942191 267.39987612 C94.85456945 272.72727615 94.85285116 278.05466366 94.85387802 283.38206482 C94.85540133 291.30443024 94.85124472 299.22678559 94.8460034 307.14914905 C94.83632419 322.12263945 94.83351892 337.09612644 94.83294634 352.0696196 C94.83248699 363.63451282 94.83042968 375.1994047 94.82724571 386.76429749 C94.82634817 390.09196615 94.82545836 393.41963482 94.82457083 396.74730349 C94.82434979 397.57455795 94.82412874 398.40181242 94.82390099 399.2541352 C94.81774509 422.52977236 94.81380059 445.80540905 94.81424427 469.08104706 C94.81425985 469.95890813 94.81427543 470.83676921 94.81429148 471.74123213 C94.81437459 476.19068476 94.81447363 480.64013739 94.81457619 485.08959001 C94.81459613 485.97327891 94.81461608 486.85696781 94.81463663 487.76743516 C94.81467706 489.55447184 94.81471886 491.34150852 94.81476202 493.1285452 C94.81537456 520.92229058 94.80787277 548.71602374 94.79418945 576.50976562 C94.77882489 607.73138704 94.7702235 638.95300044 94.77115268 670.17462587 C94.77122731 673.50480938 94.77127601 676.83499288 94.77130699 680.16517639 C94.77131865 680.98515878 94.7713303 681.80514116 94.77134231 682.6499715 C94.77137307 695.84053616 94.76498949 709.03109023 94.75637473 722.22165174 C94.74789274 735.48340727 94.74691253 748.74514732 94.75348405 762.00690407 C94.75717637 769.88266302 94.75535687 777.75837488 94.74554171 785.63412884 C94.73882745 791.51975743 94.74260392 797.40534929 94.75041493 803.29097754 C94.75195262 805.66856751 94.75012366 808.04616258 94.74455485 810.42374653 C94.66699583 827.31207851 94.66699583 827.31207851 97 844 C97.26039062 845.24394531 97.52078125 846.48789062 97.7890625 847.76953125 C104.60108694 872.5665735 120.53397176 894.25354054 142.875 907.1875 C159.28381071 916.3727228 176.20649691 921.16389167 195.02481556 921.13142776 C196.6851364 921.13450672 196.6851364 921.13450672 198.37899908 921.13764787 C202.10235269 921.14331968 205.82566932 921.14186038 209.54902649 921.14044189 C212.23986025 921.14302543 214.93069103 921.14599978 217.62152356 921.1494453 C224.25058192 921.15701823 230.87963222 921.159218 237.50869446 921.15977435 C245.44939043 921.16068871 253.39007898 921.16735844 261.33077175 921.17412117 C280.52417743 921.19017723 299.71758231 921.19608427 318.9109935 921.20086992 C327.99351208 921.20320654 337.07603003 921.20680929 346.15854811 921.2105653 C377.25747622 921.22340124 408.35640397 921.23411977 439.45533466 921.2375679 C441.4073991 921.23778953 443.35946354 921.23801132 445.31152798 921.23823325 C447.26827648 921.23845389 449.22502498 921.23867438 451.18177348 921.2388947 C455.10726631 921.23933725 459.03275913 921.23978437 462.95825195 921.24023438 C463.93154521 921.24034377 464.90483846 921.24045316 465.90762545 921.24056586 C497.45522204 921.24419519 529.00279563 921.26011031 560.55038342 921.28342474 C593.91477247 921.30803667 627.27914837 921.3217414 660.64354676 921.32293582 C664.30828011 921.32310727 667.97301346 921.3233227 671.63774681 921.32357025 C672.54008811 921.32362602 673.44242941 921.32368179 674.37211438 921.32373925 C688.87637166 921.32488859 703.3806053 921.33590078 717.8848546 921.35045731 C732.47278177 921.36484426 747.06067873 921.36804691 761.64861105 921.36001733 C770.3076385 921.35557123 778.96656822 921.3593807 787.62558277 921.37525584 C793.42017222 921.38504419 799.21469359 921.38379101 805.00928249 921.37381961 C808.30406504 921.36845514 811.59862487 921.36931299 814.89339868 921.38032833 C848.0340699 921.48406954 876.28061 915.60646111 901.1875 892.25 C924.13814521 868.1372968 929.47734928 838.65355358 929.38768005 806.56422424 C929.39185912 804.11637168 929.39733976 801.66852105 929.40399987 799.22067398 C929.4154015 793.92445523 929.41760997 788.62835475 929.41144943 783.33213615 C929.40231279 775.45608944 929.4104267 767.58012393 929.42174067 759.70408341 C929.44135764 745.63256889 929.44376461 731.56109131 929.43854547 717.48956637 C929.43398026 705.17438931 929.43459749 692.85922682 929.44038582 680.54405022 C929.4411427 678.88921297 929.44189868 677.23437572 929.44265376 675.57953848 C929.44379901 673.08556193 929.4449489 670.5915854 929.44611301 668.09760886 C929.45681023 644.92626766 929.46155116 621.75493129 929.45364285 598.5835886 C929.45334567 597.71102867 929.4530485 596.83846874 929.45274232 595.9394676 C929.45029362 588.85460618 929.44768192 581.76974481 929.44505819 574.68488346 C929.43495566 547.05023451 929.44331444 519.41564633 929.46655273 491.78100586 C929.49264691 460.70024204 929.50546768 429.6195148 929.49836498 398.53873962 C929.49764897 395.22241494 929.49697458 391.90609025 929.49632454 388.58976555 C929.49606983 387.36500938 929.49606983 387.36500938 929.49580997 386.11551066 C929.49351088 373.81189781 929.50146519 361.50831903 929.51461601 349.20471382 C929.529551 335.2073202 929.53033854 321.2100062 929.5125451 307.21261425 C929.50300795 299.38889745 929.50436384 291.56536656 929.52177979 283.74166233 C929.53356128 277.88638796 929.52423134 272.03126643 929.50695742 266.17600178 C929.50320292 263.81752506 929.50610331 261.45902568 929.51656907 259.1005692 C929.64421766 228.11644255 921.87303083 201.44661576 899.69921875 178.6328125 C875.48023893 155.72189542 847.42341211 152.32667415 815.55963135 152.7253418 C811.87839084 152.76689241 808.19703437 152.78466194 804.515625 152.8046875 C797.3434414 152.8470788 790.17181884 152.91498267 783 153 C783.02094727 151.72995117 783.04189453 150.45990234 783.06347656 149.15136719 C783.13650262 144.38781241 783.18202512 139.62430594 783.21972656 134.86035156 C783.23970057 132.80818326 783.26688947 130.75607083 783.30175781 128.70410156 C783.57773702 112.03171063 782.92516743 99.55658962 771.03515625 86.91015625 C763.45788799 79.55212179 753.6331706 75.08209032 743 74.6875 C730.89853459 74.90862312 720.52140478 80.35398239 712.16015625 88.875 C696.84100782 107.58541029 703 129.29957269 703 153 C576.94 153 450.88 153 321 153 C321 137.82 321 122.64 321 107 C314.77984255 92.07162213 309.48604621 83.85655847 294.8125 77.6875 C278.04126204 71.45965971 261.94775949 76.91011275 249.82421875 89.6484375 Z " fill="#F8F8F8" transform="translate(0,0)"/>
<path d="M0 0 C7.56628977 5.84818031 10.81566002 13.93290588 14.1015625 22.6953125 C14.1015625 37.8753125 14.1015625 53.0553125 14.1015625 68.6953125 C140.1615625 68.6953125 266.2215625 68.6953125 396.1015625 68.6953125 C396.1015625 53.5153125 396.1015625 38.3353125 396.1015625 22.6953125 C401.43101579 9.90462461 405.93202863 1.22860885 418.1015625 -5.3046875 C430.83108244 -10.53260699 440.35999872 -10.41079805 453.1015625 -5.3046875 C464.2928551 0.56144322 471.0251431 8.87262956 475.15454102 20.71508789 C476.47932201 25.44965463 476.35129152 30.12072738 476.296875 35.00390625 C476.29263016 36.45398827 476.29263016 36.45398827 476.28829956 37.93336487 C476.27716657 40.99997702 476.25207474 44.06628965 476.2265625 47.1328125 C476.21652381 49.22069889 476.20739951 51.30858988 476.19921875 53.39648438 C476.17724977 58.49620794 476.14276757 63.59570955 476.1015625 68.6953125 C476.85086029 68.68643005 477.60015808 68.67754761 478.37216187 68.668396 C485.5185647 68.58743033 492.66473762 68.52693956 499.81148338 68.48806381 C503.4835747 68.46740387 507.15527949 68.43949573 510.82714844 68.39355469 C543.80069575 67.99220244 570.74367404 72.87361574 595.25390625 96.6953125 C612.61720478 114.44106254 622.46943749 139.58647768 622.35883141 164.25407314 C622.36233748 165.2619791 622.36584355 166.26988505 622.36945587 167.30833361 C622.37872741 170.67097931 622.37385749 174.0334502 622.36898804 177.39610291 C622.37272644 179.8373507 622.37732872 182.27859731 622.38271868 184.71984202 C622.39239099 190.02025225 622.39586682 195.32061227 622.39380646 200.62102699 C622.39074993 208.50353241 622.39909494 216.38599758 622.40955571 224.26849516 C622.4288781 239.16907701 622.43452331 254.06964507 622.43566982 268.97023796 C622.43658975 280.48153495 622.44071082 291.99282655 622.44707108 303.50412178 C622.44886624 306.82055506 622.45064587 310.13698836 622.45242083 313.45342165 C622.45308398 314.69023263 622.45308398 314.69023263 622.45376052 315.95202968 C622.46606604 339.13978969 622.47396196 362.32754782 622.47307396 385.51531124 C622.4730428 386.38921683 622.47301164 387.26312242 622.47297954 388.16351 C622.47281333 392.59256538 622.47261525 397.02162076 622.47241013 401.45067614 C622.47235029 402.77005144 622.47235029 402.77005144 622.47228925 404.11608079 C622.47220837 405.89481385 622.47212478 407.6735469 622.47203846 409.45227995 C622.47081356 437.1128203 622.48581619 464.77331158 622.51318359 492.43383789 C622.54393843 523.53068858 622.56111399 554.62750703 622.55925715 585.72437388 C622.5591079 589.04363636 622.55901048 592.36289884 622.55894852 595.68216133 C622.55891355 596.90803374 622.55891355 596.90803374 622.55887788 598.15867124 C622.55881646 611.28244928 622.57156166 624.40618455 622.58881305 637.52994989 C622.6058088 650.7328578 622.60771266 663.93570349 622.5945944 677.13861632 C622.58723103 684.97077281 622.59078444 692.80273965 622.61047908 700.63487585 C622.62397498 706.50022949 622.61629724 712.36543688 622.60073264 718.23078925 C622.59767327 720.59082884 622.60125459 722.95088926 622.61245279 725.31090426 C622.75137762 756.68761047 616.25425787 782.71450951 595.1015625 806.6953125 C594.56273437 807.31792969 594.02390625 807.94054687 593.46875 808.58203125 C577.06523184 826.26321037 552.15183316 835.77845519 528.42761365 836.81177796 C520.51882337 837.00518842 512.60786749 836.968561 504.69729614 836.95600891 C501.99899203 836.95903173 499.30069931 836.96284148 496.60239875 836.96760148 C490.74975528 836.97633202 484.89714681 836.97768684 479.04449844 836.97409821 C470.34108963 836.96877575 461.63771452 836.97490195 452.93430937 836.98318114 C436.4838172 836.99840035 420.03334046 837.00012838 403.58284272 836.99765811 C390.87831492 836.9958237 378.17379216 836.99758817 365.46926498 837.00188255 C363.64242678 837.00248496 361.81558857 837.00308616 359.98875036 837.00368616 C357.23571172 837.00459343 354.48267308 837.0055021 351.72963444 837.00641851 C326.14231732 837.01484483 300.5550021 837.01918591 274.96768379 837.01501179 C274.0036209 837.01485541 273.03955801 837.01469904 272.04628109 837.01453792 C267.16029683 837.01373217 262.27431258 837.01288639 257.38832833 837.01202462 C256.4179977 837.01185353 255.44766708 837.01168244 254.44793249 837.01150617 C252.48569024 837.01115951 250.52344799 837.01081098 248.56120574 837.01046058 C218.02695777 837.00510308 187.49273868 837.01303594 156.95849609 837.03149414 C122.63404244 837.05221937 88.30960667 837.06293593 53.9851464 837.05891865 C50.32392812 837.05852332 46.66270984 837.05816177 43.00149155 837.05782127 C42.10004091 837.05773054 41.19859026 837.05763981 40.26982294 837.05754633 C26.67436218 837.05638141 13.07891952 837.06302058 -0.51653671 837.07363319 C-15.9812521 837.08569281 -31.44592769 837.08723529 -46.91064368 837.07484303 C-55.55901601 837.06822262 -64.20729312 837.06982659 -72.8556578 837.08343154 C-78.6403484 837.09169547 -84.42496792 837.08895335 -90.20965278 837.07745627 C-93.50029494 837.07121908 -96.79071609 837.07122337 -100.08135401 837.08131961 C-128.49719077 837.16243133 -154.57123871 832.8099647 -176.8984375 813.6953125 C-177.69765625 813.04046875 -178.496875 812.385625 -179.3203125 811.7109375 C-198.36280198 795.50707999 -209.87150136 771.51364325 -211.8984375 746.6953125 C-212.03047251 743.24894104 -212.03819299 739.80726598 -212.03265858 736.35865021 C-212.03501081 735.35046478 -212.03736304 734.34227935 -212.03978655 733.30354285 C-212.04643923 729.92797758 -212.04601946 726.55245114 -212.04560852 723.17687988 C-212.04890945 720.73109615 -212.0526355 718.28531297 -212.05675 715.83953047 C-212.06570347 709.82438388 -212.06999342 703.80924968 -212.07226897 697.79409817 C-212.07523814 690.58661781 -212.08393965 683.37914713 -212.09268325 676.17167187 C-212.11349845 658.75383313 -212.12399247 641.33599272 -212.13281285 623.91814445 C-212.13702316 615.67461092 -212.1422446 607.43107812 -212.14749738 599.1875452 C-212.1653842 570.95602801 -212.18037957 542.7245106 -212.18781757 514.49298859 C-212.18829233 512.72160632 -212.18876821 510.95022406 -212.18924524 509.1788418 C-212.18948161 508.30042012 -212.18971799 507.42199845 -212.18996153 506.51695793 C-212.19116269 502.06664383 -212.19237815 497.61632972 -212.19360352 493.16601562 C-212.19396374 491.84126411 -212.19396374 491.84126411 -212.19433124 490.48974993 C-212.20222328 461.85862898 -212.22565488 433.22754947 -212.25815946 404.59644661 C-212.29248146 374.30908267 -212.31217084 344.02174297 -212.31546181 313.73435926 C-212.31587934 310.4075365 -212.3163589 307.08071374 -212.31688499 303.75389099 C-212.31700819 302.9347643 -212.31713138 302.11563761 -212.3172583 301.2716889 C-212.3195872 288.10815214 -212.33522961 274.94466365 -212.35572684 261.78114408 C-212.37601401 248.5422014 -212.38144845 235.3033165 -212.37195621 222.06436116 C-212.36675273 214.20714087 -212.37256399 206.35011342 -212.39449088 198.49292101 C-212.40965159 192.61416336 -212.40371588 186.73554613 -212.38982036 180.85678142 C-212.38744534 178.48731218 -212.39176222 176.1178242 -212.40364901 173.74838358 C-212.48808277 155.79842076 -210.8284211 140.06332879 -202.8984375 123.6953125 C-202.12693359 122.09236328 -202.12693359 122.09236328 -201.33984375 120.45703125 C-189.91009572 97.99348488 -170.24785313 81.28901355 -146.48828125 73.11328125 C-138.81895512 70.62467374 -131.57800808 68.565767 -123.45581055 68.58178711 C-122.17486008 68.58186264 -120.89390961 68.58193817 -119.57414246 68.58201599 C-118.18614665 68.58712185 -116.79815125 68.59233783 -115.41015625 68.59765625 C-113.98240712 68.59952275 -112.55465735 68.60094556 -111.12690735 68.60194397 C-107.38030205 68.60575085 -103.6337359 68.61556543 -99.887146 68.62664795 C-96.05953501 68.63690148 -92.23191766 68.64145002 -88.40429688 68.64648438 C-80.90232596 68.65718943 -73.40038723 68.67424377 -65.8984375 68.6953125 C-65.91938477 67.38973389 -65.94033203 66.08415527 -65.96191406 64.73901367 C-66.0348408 59.85061809 -66.08042741 54.96226967 -66.11816406 50.07348633 C-66.13816028 47.96598193 -66.16536643 45.85853216 -66.20019531 43.7512207 C-66.46607887 27.23906975 -65.75241446 15.01119463 -53.8984375 2.6015625 C-37.8735747 -12.73652047 -17.70152555 -12.16524595 0 0 Z M-153.8984375 311.6953125 C-153.9809375 383.0371875 -154.0634375 454.3790625 -154.1484375 527.8828125 C-154.18485352 550.42231201 -154.22126953 572.96181152 -154.25878906 596.18432617 C-154.27216549 616.36081573 -154.27216549 616.36081573 -154.2802124 636.53730774 C-154.28394409 645.53511224 -154.29862336 654.53281752 -154.32073975 663.53059387 C-154.34621203 673.90903038 -154.3577787 684.28737164 -154.3522173 694.66583963 C-154.34980894 699.97419786 -154.35361173 705.28234323 -154.37529802 710.59066236 C-154.39480696 715.39527302 -154.39570293 720.19952092 -154.38204193 725.00414848 C-154.38035195 726.73671138 -154.38537113 728.46929732 -154.39796782 730.20181525 C-154.48941556 743.57018606 -153.59133109 756.48857877 -143.8984375 766.6953125 C-143.37378906 767.24832031 -142.84914063 767.80132813 -142.30859375 768.37109375 C-135.9120236 774.43654733 -126.99896439 777.81614647 -118.20916033 777.82411367 C-117.26292417 777.82738586 -116.31668802 777.83065805 -115.34177804 777.83402941 C-113.78400946 777.83180397 -113.78400946 777.83180397 -112.19477081 777.82953358 C-111.08617746 777.83188581 -109.9775841 777.83423804 -108.83539701 777.83666155 C-105.08821234 777.84336469 -101.34106224 777.84289293 -97.59387207 777.84248352 C-94.89310162 777.84578133 -92.19233423 777.84946886 -89.49156523 777.853625 C-82.82648249 777.86295761 -76.16140639 777.86687416 -69.49631794 777.86914397 C-61.51520826 777.87210433 -53.53410741 777.88080079 -45.55300236 777.88955825 C-26.26040643 777.91041085 -6.96780896 777.92087387 12.32479562 777.92968785 C21.45046906 777.93389334 30.57614184 777.93911548 39.70181472 777.94437238 C70.93576793 777.9622636 102.16972133 777.97725978 133.40367889 777.98469257 C135.3648847 777.98516733 137.32609051 777.98564322 139.28729632 777.98612024 C140.25988553 777.98635661 141.23247474 777.98659299 142.23453634 777.98683653 C147.16221694 777.98803773 152.08989753 777.98925318 157.01757812 777.99047852 C157.99549428 777.99071867 158.97341043 777.99095882 159.98096041 777.99120624 C191.68755576 777.99909922 223.3941137 778.02253051 255.10069271 778.05503446 C288.61698426 778.08933094 322.13325392 778.10904357 355.64956331 778.11233681 C359.32883995 778.11275436 363.00811657 778.11323392 366.68739319 778.11375999 C368.04632065 778.11394478 368.04632065 778.11394478 369.43270118 778.1141333 C384.01363389 778.1164656 398.59452316 778.13212726 413.17544038 778.15260184 C427.83196778 778.17285606 442.488443 778.17833906 457.1449818 778.16883121 C465.85194235 778.16361462 474.5587292 778.16950115 483.26566475 778.19136588 C489.08465012 778.20487381 494.90351592 778.20379705 500.72250247 778.19096392 C504.03630252 778.18406702 507.34950061 778.18561656 510.66331428 778.20052401 C514.23956214 778.21561573 517.81494013 778.20598784 521.39116669 778.19029713 C522.92084127 778.20563044 522.92084127 778.20563044 524.48141837 778.22127351 C535.28339279 778.11791819 544.71764092 775.06199413 552.91015625 767.9609375 C563.91799617 756.58028303 564.54343056 742.97077734 564.46232605 728.01644897 C564.46363978 726.22198347 564.46627321 724.42751853 564.47010803 722.63305664 C564.47681932 717.7093379 564.46482083 712.78581582 564.44978069 707.86212203 C564.43666128 702.46826105 564.44106581 697.07440884 564.44323444 691.68053627 C564.44482814 681.21465172 564.43098865 670.74884451 564.41173046 660.28297982 C564.39011777 648.1747296 564.38774551 636.06652572 564.38537598 623.95825195 C564.36962943 591.99559322 564.32774603 560.0329517 564.2890625 528.0703125 C564.19625 420.9646875 564.19625 420.9646875 564.1015625 311.6953125 C327.1615625 311.6953125 90.2215625 311.6953125 -153.8984375 311.6953125 Z " fill="#010101" transform="translate(306.8984375,84.3046875)"/>
<path d="M0 0 C1.97641983 0.00848969 1.97641983 0.00848969 3.99276733 0.01715088 C7.46176642 0.03227717 10.93007406 0.07144191 14.39880371 0.1159668 C17.95197196 0.15720437 21.50525415 0.17522206 25.05859375 0.1953125 C32.00548877 0.23795267 38.95192976 0.30604131 45.8984375 0.390625 C45.91302002 1.30239502 45.92760254 2.21416504 45.94262695 3.15356445 C46.00427092 6.58885429 46.0785249 10.02341953 46.16088867 13.45825195 C46.19381322 14.9350383 46.22194223 16.41194069 46.24487305 17.88891602 C46.48924448 33.22192388 48.54712898 46.51968693 59.9609375 57.703125 C68.8565135 65.01232328 78.8254006 67.40636563 90.09765625 66.8046875 C101.68854296 65.54195986 110.22736937 59.97367619 117.7109375 51.203125 C128.41218583 35.04633831 125.30864967 20.44341123 125.8984375 0.390625 C251.9584375 0.390625 378.0184375 0.390625 507.8984375 0.390625 C508.2284375 11.610625 508.5584375 22.830625 508.8984375 34.390625 C512.61915564 46.7930188 517.64545966 56.25996742 529.3359375 62.7421875 C539.17769092 67.24219975 550.40696414 68.29931677 560.7734375 64.765625 C571.79338755 60.07315369 579.57798516 53.39479455 584.2734375 42.203125 C586.5469436 36.2425851 587.03135536 30.3668934 587.21484375 24.0234375 C587.23562485 23.34384979 587.25640594 22.66426208 587.27781677 21.96408081 C587.3426738 19.81468834 587.40189691 17.6651843 587.4609375 15.515625 C587.50418362 14.0494681 587.54779975 12.58332206 587.59179688 11.1171875 C587.69828854 7.54178225 587.79973159 3.96625463 587.8984375 0.390625 C595.418246 0.29746054 602.93799376 0.22662656 610.45825005 0.18337631 C613.95121697 0.16260573 617.44378564 0.13448494 620.93652344 0.08886719 C624.96292689 0.03661554 628.98891977 0.01759302 633.015625 0 C634.25456512 -0.02064514 635.49350525 -0.04129028 636.76998901 -0.06256104 C647.70829795 -0.06536054 656.82139069 2.61030899 664.8984375 10.29296875 C691.84316114 38.47596094 675.8984375 106.17965613 675.8984375 127.390625 C438.9584375 127.390625 202.0184375 127.390625 -42.1015625 127.390625 C-42.1015625 21.88631466 -42.1015625 21.88631466 -30.2890625 9.48828125 C-21.31380113 0.92921144 -12.0324087 -0.19702415 0 0 Z " fill="#FEFEFE" transform="translate(195.1015625,210.609375)"/>
<path d="M0 0 C1.43423844 0.01006483 2.86848383 0.0191844 4.30273438 0.02734375 C7.76447115 0.04904551 11.22593852 0.08337545 14.6875 0.125 C10.93571078 4.57581254 7.09847657 8.79380183 2.91015625 12.83984375 C1.027073 14.77587838 -0.75401263 16.74613417 -2.52734375 18.78125 C-3.13360596 19.47661865 -3.73986816 20.1719873 -4.36450195 20.88842773 C-5.68388768 22.40326577 -7.0013782 23.91975621 -8.31713867 25.43774414 C-18.2957853 36.75710077 -26.45476387 43.70648507 -41.08984375 47.60546875 C-68.03066359 54.84892003 -93.42817679 78.74657816 -107.2421875 102.26269531 C-126.01162513 134.92083177 -131.45537499 171.5326652 -122.05859375 208.1484375 C-112.49123998 243.21084338 -90.48353314 270.7098923 -59.5625 289.3125 C-27.65005192 307.30645279 9.65925146 310.20369004 44.62890625 300.6640625 C62.73526387 295.37127396 79.44306496 286.50436989 93.6875 274.125 C94.56792969 273.38894531 95.44835937 272.65289063 96.35546875 271.89453125 C117.26093711 253.81970458 130.10955211 228.65296824 136.6875 202.125 C136.85266113 201.47547363 137.01782227 200.82594727 137.18798828 200.15673828 C143.70653648 173.45563236 141.4306323 138.21418378 126.91015625 114.18359375 C124.11341424 107.18727107 127.10857656 98.53872592 128.90234375 91.46875 C129.1181459 90.59980103 129.33394806 89.73085205 129.55628967 88.83557129 C130.00924019 87.01972129 130.46569109 85.20474105 130.92553711 83.390625 C131.62962482 80.60671381 132.31837754 77.81930289 133.00585938 75.03125 C133.44961451 73.26018933 133.8942442 71.48934751 134.33984375 69.71875 C134.54512192 68.88549194 134.75040009 68.05223389 134.9618988 67.19372559 C136.45751059 61.35498941 136.45751059 61.35498941 138.6875 59.125 C164.49748439 88.22256795 181.15530417 123.53635229 186.42163086 162.17773438 C186.67090752 164.00347415 186.95531731 165.8243197 187.2421875 167.64453125 C192.82049072 213.74839281 180.68559807 263.58850643 152.3515625 300.57421875 C149.23418098 304.5159493 145.98511942 308.3337914 142.6875 312.125 C141.90761719 313.04539062 141.12773438 313.96578125 140.32421875 314.9140625 C109.84188782 350.02168313 64.49125318 371.87757965 18.35668945 375.95947266 C-19.4849507 378.30618738 -54.93297896 371.14198725 -88.3125 353.125 C-89.33472656 352.58359375 -90.35695313 352.0421875 -91.41015625 351.484375 C-105.06912614 343.9103567 -117.10761948 333.9279838 -128.3125 323.125 C-129.13878906 322.361875 -129.96507812 321.59875 -130.81640625 320.8125 C-161.41502924 291.73644091 -182.06630458 246.45953201 -183.43725586 204.28735352 C-183.53352319 199.6500157 -183.55910198 195.01324341 -183.5625 190.375 C-183.56317474 189.54897278 -183.56384949 188.72294556 -183.56454468 187.87188721 C-183.54795642 175.08094604 -183.0633314 162.66342369 -180.3125 150.125 C-180.05509033 148.94164062 -180.05509033 148.94164062 -179.79248047 147.734375 C-172.56101176 115.68067993 -157.70987472 85.56532279 -135.3671875 61.3671875 C-133.59560243 59.43393687 -131.91467659 57.46210666 -130.25 55.4375 C-126.94128325 51.57434963 -123.22653775 48.36231159 -119.3125 45.125 C-118.79010742 44.68494629 -118.26771484 44.24489258 -117.72949219 43.79150391 C-109.3128154 36.72083305 -100.75061856 30.51323004 -91.14794922 25.15429688 C-89.37863987 24.16209041 -87.62828487 23.13631398 -85.87890625 22.109375 C-68.4913987 12.1173148 -48.95892154 5.82733139 -29.3125 2.125 C-27.86266724 1.84462891 -27.86266724 1.84462891 -26.38354492 1.55859375 C-17.55789483 0.01173909 -8.91928883 -0.11059125 0 0 Z " fill="#000000" transform="translate(511.3125,434.875)"/>
<path d="M0 0 C5.94057929 3.21845396 11.8636973 6.44923371 17.6875 9.875 C19.20923828 10.76832031 19.20923828 10.76832031 20.76171875 11.6796875 C21.50035156 12.11539062 22.23898437 12.55109375 23 13 C22.42035769 18.35127186 21.5131486 23.43860537 20.10498047 28.63867188 C19.81858908 29.72141262 19.81858908 29.72141262 19.52641201 30.82602692 C18.89495224 33.20828085 18.25608156 35.58848012 17.6171875 37.96875 C17.16565233 39.66670719 16.7145877 41.36478956 16.26396179 43.06298828 C15.05720931 47.60494643 13.8438972 52.14512461 12.62852859 56.68478394 C11.37009796 61.38633627 10.11479483 66.08872378 8.85913086 70.79101562 C7.34536074 76.45979932 5.83119454 82.12847438 4.31462097 87.79650879 C1.48850543 98.36679292 -1.29792123 108.94610197 -4.02884674 119.54136658 C-5.18468756 124.01723178 -6.35370875 128.48967584 -7.52069092 132.96264648 C-8.12588253 135.29767644 -8.72453238 137.63441289 -9.31622314 139.97290039 C-16.5695943 168.61150687 -16.5695943 168.61150687 -30 178 C-39.53306575 183.67816485 -51.01756668 184.92414026 -61.8359375 182.31640625 C-64.05972814 181.37617196 -65.98353879 180.32510308 -68 179 C-69.04027344 178.34644531 -69.04027344 178.34644531 -70.1015625 177.6796875 C-78.01760795 172.25408332 -83.89041563 164.43453011 -86 155 C-88.24858307 137.29452163 -83.09446345 123.44378136 -73 109 C-71.91881756 107.37521749 -70.83788318 105.75026355 -69.76147461 104.12231445 C-68.49039213 102.20365543 -67.21085816 100.29084262 -65.9296875 98.37890625 C-63.88676963 95.32847427 -61.8511926 92.27330305 -59.8203125 89.21484375 C-50.18928516 74.72080982 -40.46059856 60.29364714 -30.72338867 45.87081909 C-20.42644121 30.61742833 -10.17720648 15.3335466 0 0 Z " fill="#000000" transform="translate(589,450)"/>
<path d="M0 0 C1.65 0 3.3 0 5 0 C4.67 0.99 4.34 1.98 4 3 C-68.6 3 -141.2 3 -216 3 C-216 2.67 -216 2.34 -216 2 C-144.72 2 -73.44 2 0 2 C0 1.34 0 0.68 0 0 Z " fill="#F0F0EF" transform="translate(838,920)"/>
<path d="M0 0 C0.33 0 0.66 0 1 0 C1 14.85 1 29.7 1 45 C-17.48 45 -35.96 45 -55 45 C-55 44.67 -55 44.34 -55 44 C-37.51 43.67 -20.02 43.34 -2 43 C-1.71087184 29.97117834 -1.71087184 29.97117834 -1.43188477 16.94213867 C-1.39375965 15.30907341 -1.35529033 13.67601612 -1.31640625 12.04296875 C-1.29993042 11.19464478 -1.28345459 10.3463208 -1.26647949 9.47229004 C-1.24629761 8.66054321 -1.22611572 7.84879639 -1.20532227 7.01245117 C-1.18977798 6.3085173 -1.1742337 5.60458344 -1.15821838 4.87931824 C-1 3 -1 3 0 0 Z " fill="#EBEBEB" transform="translate(240,108)"/>
</svg>
